<mxfile host="app.diagrams.net" modified="2023-02-01T15:59:42.861Z" agent="5.0 (Macintosh; Intel Mac OS X 10_15_7) AppleWebKit/537.36 (KHTML, like Gecko) Chrome/109.0.0.0 Safari/537.36" etag="6GEH6gyezrUScYlNN1xq" version="20.8.11" type="github">
  <diagram name="Page-1" id="k2-1vqRRdxtiwyI-7Aso">
    <mxGraphModel dx="1716" dy="1131" grid="1" gridSize="10" guides="1" tooltips="1" connect="1" arrows="1" fold="1" page="1" pageScale="1" pageWidth="850" pageHeight="1100" math="0" shadow="0">
      <root>
        <mxCell id="0" />
        <mxCell id="1" parent="0" />
        <mxCell id="op5Rpucn5_69WlDP3ztE-2" value="" style="fillColor=#dddddd;rounded=0;strokeColor=none;" vertex="1" parent="1">
          <mxGeometry x="110" y="550" width="840" height="30" as="geometry" />
        </mxCell>
        <mxCell id="op5Rpucn5_69WlDP3ztE-3" value="Use Cases" style="shape=mxgraph.infographic.ribbonSimple;notch1=0;notch2=10;notch=0;html=1;fillColor=#10739E;strokeColor=none;shadow=0;fontSize=17;fontColor=#FFFFFF;align=left;spacingLeft=10;fontStyle=1;" vertex="1" parent="1">
          <mxGeometry x="150" y="540" width="120" height="50" as="geometry" />
        </mxCell>
        <mxCell id="op5Rpucn5_69WlDP3ztE-4" value="PoC" style="shape=mxgraph.infographic.ribbonSimple;notch1=0;notch2=10;notch=0;html=1;fillColor=#F2931E;strokeColor=none;shadow=0;fontSize=17;fontColor=#FFFFFF;align=left;spacingLeft=10;fontStyle=1;" vertex="1" parent="1">
          <mxGeometry x="310" y="540" width="120" height="50" as="geometry" />
        </mxCell>
        <mxCell id="op5Rpucn5_69WlDP3ztE-5" value="Dev" style="shape=mxgraph.infographic.ribbonSimple;notch1=0;notch2=10;notch=0;html=1;fillColor=#AE4132;strokeColor=none;shadow=0;fontSize=17;fontColor=#FFFFFF;align=left;spacingLeft=10;fontStyle=1;" vertex="1" parent="1">
          <mxGeometry x="470" y="540" width="120" height="50" as="geometry" />
        </mxCell>
        <mxCell id="op5Rpucn5_69WlDP3ztE-6" value="Deploy" style="shape=mxgraph.infographic.ribbonSimple;notch1=0;notch2=10;notch=0;html=1;fillColor=#23445D;strokeColor=none;shadow=0;fontSize=17;fontColor=#FFFFFF;align=left;spacingLeft=10;fontStyle=1;" vertex="1" parent="1">
          <mxGeometry x="630" y="540" width="120" height="50" as="geometry" />
        </mxCell>
        <mxCell id="op5Rpucn5_69WlDP3ztE-7" value="Announce" style="shape=mxgraph.infographic.ribbonSimple;notch1=0;notch2=10;notch=0;html=1;fillColor=#12AAB5;strokeColor=none;shadow=0;fontSize=17;fontColor=#FFFFFF;align=left;spacingLeft=10;fontStyle=1;" vertex="1" parent="1">
          <mxGeometry x="790" y="540" width="120" height="50" as="geometry" />
        </mxCell>
        <mxCell id="op5Rpucn5_69WlDP3ztE-8" value="&lt;font style=&quot;&quot;&gt;&lt;font color=&quot;#10739e&quot;&gt;&lt;b&gt;:&lt;/b&gt;&lt;/font&gt;&lt;br&gt;&lt;br&gt;&lt;span style=&quot;font-size: 10px;&quot;&gt;Collect/Clarify requirements, use cases as output&lt;/span&gt;&lt;br&gt;&lt;/font&gt;" style="rounded=1;strokeColor=none;fillColor=#DDDDDD;align=center;arcSize=12;verticalAlign=top;whiteSpace=wrap;html=1;fontSize=12;" vertex="1" parent="1">
          <mxGeometry x="110" y="460" width="200" height="70" as="geometry" />
        </mxCell>
        <mxCell id="op5Rpucn5_69WlDP3ztE-9" value="&lt;font style=&quot;&quot;&gt;&lt;font style=&quot;font-size: 12px;&quot; color=&quot;#F2931E&quot;&gt;&lt;b&gt;:&lt;/b&gt;&lt;/font&gt;&lt;br&gt;&lt;br&gt;&lt;font size=&quot;1&quot;&gt;Demo the solution is working, and&amp;nbsp; settle down system design, demo/doc as output&lt;/font&gt;&lt;br&gt;&lt;/font&gt;" style="rounded=1;strokeColor=none;fillColor=#DDDDDD;align=center;arcSize=12;verticalAlign=top;whiteSpace=wrap;html=1;fontSize=12;" vertex="1" parent="1">
          <mxGeometry x="270" y="600" width="200" height="70" as="geometry" />
        </mxCell>
        <mxCell id="op5Rpucn5_69WlDP3ztE-10" value="&lt;font style=&quot;font-size: 10px&quot;&gt;&lt;font style=&quot;font-size: 12px&quot; color=&quot;#AE4132&quot;&gt;&lt;b&gt;:&lt;/b&gt;&lt;/font&gt;&lt;br&gt;&lt;br&gt;&lt;font size=&quot;1&quot;&gt;Add detailed implementations&lt;/font&gt;&lt;/font&gt;" style="rounded=1;strokeColor=none;fillColor=#DDDDDD;align=center;arcSize=12;verticalAlign=top;whiteSpace=wrap;html=1;fontSize=12;" vertex="1" parent="1">
          <mxGeometry x="430" y="460" width="200" height="70" as="geometry" />
        </mxCell>
        <mxCell id="op5Rpucn5_69WlDP3ztE-11" value="&lt;font style=&quot;font-size: 10px&quot;&gt;&lt;font style=&quot;font-size: 12px&quot; color=&quot;#23445D&quot;&gt;&lt;b&gt;:&lt;/b&gt;&lt;/font&gt;&lt;br&gt;&lt;br&gt;&lt;font size=&quot;1&quot;&gt;Roll out staging -&amp;gt; sandbox -&amp;gt; production&lt;/font&gt;&lt;/font&gt;" style="rounded=1;strokeColor=none;fillColor=#DDDDDD;align=center;arcSize=12;verticalAlign=top;whiteSpace=wrap;html=1;fontSize=12;" vertex="1" parent="1">
          <mxGeometry x="590" y="600" width="200" height="70" as="geometry" />
        </mxCell>
        <mxCell id="op5Rpucn5_69WlDP3ztE-12" value="&lt;font style=&quot;font-size: 10px&quot;&gt;&lt;font style=&quot;font-size: 12px&quot; color=&quot;#12AAB5&quot;&gt;&lt;b&gt;:&lt;/b&gt;&lt;/font&gt;&lt;br&gt;&lt;br&gt;&lt;font size=&quot;1&quot;&gt;Final test/confirm, and be ready to announce the feature is available&lt;/font&gt;&lt;/font&gt;" style="rounded=1;strokeColor=none;fillColor=#DDDDDD;align=center;arcSize=12;verticalAlign=top;whiteSpace=wrap;html=1;fontSize=12;" vertex="1" parent="1">
          <mxGeometry x="750" y="460" width="200" height="70" as="geometry" />
        </mxCell>
      </root>
    </mxGraphModel>
  </diagram>
</mxfile>
